HIERARCHY
ROOT Hips
{
	OFFSET 0.000000 0.000000 0.000000
	CHANNELS 6 Xposition Yposition Zposition Xrotation Yrotation Zrotation
	JOINT LeftUpLeg_virtual
	{
		OFFSET 0.000000 0.000000 0.000000
		CHANNELS 3 Xrotation Yrotation Zrotation
		JOINT LeftUpLeg
		{
			OFFSET 10.205400 -3.823500 0.155100
			CHANNELS 3 Xrotation Yrotation Zrotation
			JOINT LeftLeg
			{
				OFFSET 0.708757 -12.982077 0.567790
				CHANNELS 3 Xrotation Yrotation Zrotation
				JOINT LeftFoot
				{
					OFFSET -0.708756 -10.717838 -2.184338
					CHANNELS 3 Xrotation Yrotation Zrotation
					JOINT LeftToeBase
					{
						OFFSET 0.108149 -7.191104 7.560241
						CHANNELS 3 Xrotation Yrotation Zrotation
						JOINT LeftToe_End
						{
							OFFSET 0.070230 0.081724 4.490308
							CHANNELS 3 Xrotation Yrotation Zrotation
							End Site
							{
								OFFSET 0 0 0
							}
						}
					}
				}
			}
		}
	}
	JOINT RightUpLeg_virtual
	{
		OFFSET 0.000000 0.000000 0.000000
		CHANNELS 3 Xrotation Yrotation Zrotation
		JOINT RightUpLeg
		{
			OFFSET -10.205400 -3.823500 0.005500
			CHANNELS 3 Xrotation Yrotation Zrotation
			JOINT RightLeg
			{
				OFFSET -0.708756 -12.982134 0.610632
				CHANNELS 3 Xrotation Yrotation Zrotation
				JOINT RightFoot
				{
					OFFSET 0.708754 -10.717769 -1.945823
					CHANNELS 3 Xrotation Yrotation Zrotation
					JOINT RightToeBase
					{
						OFFSET -0.108140 -7.191069 7.372968
						CHANNELS 3 Xrotation Yrotation Zrotation
						JOINT RightToe_End
						{
							OFFSET -0.070227 0.081735 4.479403
							CHANNELS 3 Xrotation Yrotation Zrotation
							End Site
							{
								OFFSET 0 0 0
							}
						}
					}
				}
			}
		}
	}
	JOINT Spine_virtual
	{
		OFFSET 0.000000 0.000000 0.000000
		CHANNELS 3 Xrotation Yrotation Zrotation
		JOINT Spine
		{
			OFFSET 0.000000 6.876099 0.125700
			CHANNELS 3 Xrotation Yrotation Zrotation
			JOINT Spine1
			{
				OFFSET 0.000000 5.730043 0.104720
				CHANNELS 3 Xrotation Yrotation Zrotation
				JOINT Spine1_split
				{
					OFFSET 0.000000 5.730043 0.104720
					CHANNELS 3 Xrotation Yrotation Zrotation
					JOINT Spine2
					{
						OFFSET 0.000000 5.730043 0.104720
						CHANNELS 3 Xrotation Yrotation Zrotation
						JOINT Neck_virtual
						{
							OFFSET 0.000000 0.000000 0.000000
							CHANNELS 3 Xrotation Yrotation Zrotation
							JOINT Neck
							{
								OFFSET 0.000000 10.314075 0.188496
								CHANNELS 3 Xrotation Yrotation Zrotation
								JOINT Head
								{
									OFFSET 0.000000 7.643700 -2.377400
									CHANNELS 3 Xrotation Yrotation Zrotation
									JOINT HeadTop_End
									{
										OFFSET 0.000000 43.788605 -13.619600
										CHANNELS 3 Xrotation Yrotation Zrotation
										End Site
										{
											OFFSET 0 0 0
										}
									}
								}
							}
						}
						JOINT LeftShoulder_virtual
						{
							OFFSET 0.000000 0.000000 0.000000
							CHANNELS 3 Xrotation Yrotation Zrotation
							JOINT LeftShoulder
							{
								OFFSET 2.196100 4.412489 0.087492
								CHANNELS 3 Xrotation Yrotation Zrotation
								JOINT LeftShoulder_split
								{
									OFFSET 2.196100 4.412489 0.087492
									CHANNELS 3 Xrotation Yrotation Zrotation
									JOINT LeftArm
									{
										OFFSET 8.771219 -2.981674 -0.026999
										CHANNELS 3 Xrotation Yrotation Zrotation
										JOINT LeftForeArm
										{
											OFFSET 8.512804 0.000000 -0.000000
											CHANNELS 3 Xrotation Yrotation Zrotation
											JOINT LeftHand
											{
												OFFSET 18.484802 0.000000 -0.000000
												CHANNELS 3 Xrotation Yrotation Zrotation
												End Site
												{
													OFFSET 0 0 0
												}
											}
										}
									}
								}
							}
						}
						JOINT RightShoulder_virtual
						{
							OFFSET 0.000000 0.000000 0.000000
							CHANNELS 3 Xrotation Yrotation Zrotation
							JOINT RightShoulder
							{
								OFFSET -2.196100 4.412496 0.070690
								CHANNELS 3 Xrotation Yrotation Zrotation
								JOINT RightShoulder_split
								{
									OFFSET -2.196100 4.412496 0.070690
									CHANNELS 3 Xrotation Yrotation Zrotation
									JOINT RightArm
									{
										OFFSET -8.771282 -2.981682 -0.094208
										CHANNELS 3 Xrotation Yrotation Zrotation
										JOINT RightForeArm
										{
											OFFSET -8.494598 0.000000 0.000000
											CHANNELS 3 Xrotation Yrotation Zrotation
											JOINT RightHand
											{
												OFFSET -18.483803 0.000000 0.000001
												CHANNELS 3 Xrotation Yrotation Zrotation
												End Site
												{
													OFFSET 0 0 0
												}
											}
										}
									}
								}
							}
						}
					}
				}
			}
		}
	}
}
MOTION
Frames: 4
Frame Time: 0.03333333
3.696424 32.890167 6.167204 0.000000 0.000000 0.000000 -0.901193 8.982766 -4.160546 7.530601 12.103718 10.541703 19.761143 -7.483848 -2.203432 -32.418250 2.556194 1.272230 -0.466819 -0.475201 -1.441373 0.000000 0.000000 0.000000 -0.477174 7.493433 -4.405448 -25.006417 -7.777387 -2.125186 30.458532 1.449764 2.388376 -9.207752 1.457630 6.667153 5.204519 1.539401 1.630935 0.000000 0.000000 0.000000 -0.024100 8.182490 -4.048712 11.637136 -2.019453 2.346654 0.702810 -1.729049 0.822805 0.807018 -1.097561 0.431870 0.000000 0.000000 0.000000 -3.043449 -1.400046 1.016215 -1.004596 -0.252026 5.182076 -3.970158 0.138394 -4.522979 0.000000 0.000000 0.000000 -3.169194 -1.593856 1.000909 0.821478 -1.044134 -3.068151 -1.257655 -0.591769 -0.117809 -0.938575 -10.213641 -74.654466 10.455086 -13.025412 -3.257952 0.000000 0.000000 0.000000 -3.293434 -1.893630 0.986509 2.399586 -0.115242 7.988385 -2.366457 1.050717 -1.601560 1.938273 10.637253 71.479405 11.130839 19.046976 3.162477 0.000000 0.000000 0.000000 
3.773050 33.071404 6.897899 0.000000 0.000000 0.000000 -0.507295 9.830445 -5.027812 9.238899 11.612992 11.022082 18.246652 -8.278756 -1.800201 -32.312976 2.867220 0.525670 -1.711243 -0.752786 -1.474586 0.000000 0.000000 0.000000 -0.130630 7.723663 -5.240432 -25.766001 -7.462873 -0.355752 24.329786 3.117078 2.282746 -9.329539 1.688768 7.639575 6.935397 -1.182876 0.284960 0.000000 0.000000 0.000000 0.511015 8.232359 -4.761112 11.532530 -2.112733 3.056161 0.438982 -1.909007 0.910475 0.761563 -1.050293 0.430533 0.000000 0.000000 0.000000 -3.180485 -1.552700 1.115861 -1.237878 -0.380187 5.028407 -4.289707 0.059561 -5.251174 0.000000 0.000000 0.000000 -3.326123 -1.719568 0.980466 0.848792 -1.113586 -2.963063 -1.213807 -0.277971 0.010706 -1.270981 -10.844171 -74.501518 10.656653 -13.516980 -3.646618 0.000000 0.000000 0.000000 -3.307008 -1.974524 1.066102 2.514817 -0.798326 7.955549 -2.435895 0.810719 -1.852370 2.050774 11.040103 71.387191 10.838307 18.674823 4.020201 0.000000 0.000000 0.000000 
3.806009 33.223438 7.673473 0.000000 0.000000 0.000000 -0.169156 10.661347 -5.718325 10.840891 10.663141 11.612968 17.119999 -8.981363 -1.336563 -31.722335 3.786381 -0.896504 -2.966733 -1.033424 -1.388522 0.000000 0.000000 0.000000 0.152556 8.348498 -5.918942 -26.443456 -6.674646 0.702918 19.154856 4.916008 2.244102 -8.413119 2.103017 8.214922 7.163930 -3.868157 -0.861829 0.000000 0.000000 0.000000 0.829144 8.376662 -5.373607 11.726463 -2.356324 3.532218 0.165972 -2.176131 1.144558 0.588324 -0.810424 0.457162 0.000000 0.000000 0.000000 -3.340033 -1.815434 1.362894 -1.646241 -0.473941 4.717038 -4.704051 -0.129030 -5.886684 0.000000 0.000000 0.000000 -3.543366 -1.936663 1.111629 0.864095 -1.246764 -3.144525 -1.278652 0.166662 -0.023328 -1.304541 -11.586455 -74.162781 10.753344 -13.853826 -4.088251 0.000000 0.000000 0.000000 -3.413100 -2.166867 1.266481 2.609019 -1.398404 7.749712 -2.459748 0.744796 -2.046584 2.323596 11.609646 71.592021 10.459265 18.695691 4.618874 0.000000 0.000000 0.000000 
3.798086 33.287060 8.524715 0.000000 0.000000 0.000000 0.046856 11.226260 -6.218036 12.790816 9.834284 12.081487 16.157980 -8.907945 -0.848790 -31.942213 5.192161 -1.662094 -3.624328 -1.344157 -1.185106 0.000000 0.000000 0.000000 0.342927 9.175423 -6.397874 -27.309653 -5.733546 1.009115 15.290268 6.364744 2.310898 -7.039531 2.463571 7.778630 7.181089 -6.146317 -1.596589 0.000000 0.000000 0.000000 0.905965 8.581188 -5.840668 12.163209 -2.664907 3.748585 -0.104985 -2.488224 1.454325 0.461975 -0.420713 0.412187 0.000000 0.000000 0.000000 -3.482194 -2.138356 1.677429 -2.233550 -0.578966 4.372372 -5.213556 -0.427459 -6.376124 0.000000 0.000000 0.000000 -3.789429 -2.207040 1.342698 0.865004 -1.405924 -3.530534 -1.408436 0.536999 -0.059397 -1.139101 -12.408165 -73.703677 10.750539 -14.253646 -4.523169 0.000000 0.000000 0.000000 -3.574569 -2.433566 1.521785 2.662653 -1.910433 7.439906 -2.435604 0.817729 -2.103446 2.680268 12.256781 72.034877 9.996627 18.993481 5.011856 0.000000 0.000000 0.000000 
